<svg width="24" height="24" viewBox="0 0 24 24" fill="none" xmlns="http://www.w3.org/2000/svg">
<path d="M18.816 8.064C18.288 8.304 17.76 8.448 17.136 8.544C17.712 8.16 18.192 7.63201 18.432 6.96001C17.856 7.29601 17.232 7.53601 16.608 7.68001C16.08 7.10401 15.312 6.76801 14.496 6.76801C12.912 6.76801 11.568 8.06401 11.568 9.69601C11.568 9.93601 11.616 10.128 11.664 10.368C9.26399 10.272 7.10399 9.07201 5.66399 7.34401C5.42399 7.68001 5.27999 8.16001 5.27999 8.68801C5.27999 9.69601 5.80799 10.608 6.57599 11.088C6.09599 11.088 5.66399 10.944 5.27999 10.704V10.752C5.27999 12.144 6.28799 13.344 7.63199 13.584C7.39199 13.632 7.15199 13.68 6.86399 13.68C6.67199 13.68 6.47999 13.68 6.33599 13.632C6.71999 14.784 7.77599 15.648 9.07199 15.648C8.06399 16.416 6.81599 16.896 5.47199 16.896C5.23199 16.896 4.99199 16.896 4.79999 16.848C5.95199 17.76 7.48799 18.24 9.11999 18.24C14.448 18.24 17.376 13.824 17.376 9.984V9.60001C17.952 9.16801 18.432 8.688 18.816 8.064Z" fill="#BDBDBD"/>
</svg>
